<svg width="72" height="72" viewBox="0 0 72 72" xmlns="http://www.w3.org/2000/svg">
  <defs>
    <radialGradient id="stoneBase" cx="50%" cy="35%" r="60%">
      <stop offset="0%" stop-color="#f5f7ff"/>
      <stop offset="45%" stop-color="#c7cfdd"/>
      <stop offset="100%" stop-color="#8b93a3"/>
    </radialGradient>

    <radialGradient id="crystalVeins" cx="20%" cy="80%" r="70%">
      <stop offset="0%" stop-color="#7be9ff" stop-opacity="0.9"/>
      <stop offset="40%" stop-color="#7b9dff" stop-opacity="0.4"/>
      <stop offset="100%" stop-color="#2b3250" stop-opacity="0"/>
    </radialGradient>

    <radialGradient id="rimLight" cx="50%" cy="0%" r="70%">
      <stop offset="0%" stop-color="#ffffff" stop-opacity="0.9"/>
      <stop offset="40%" stop-color="#ffffff" stop-opacity="0"/>
      <stop offset="100%" stop-color="#000000" stop-opacity="0"/>
    </radialGradient>

    <!-- Copilot violet rune glow -->
    <radialGradient id="runeGlow" cx="50%" cy="50%" r="55%">
      <stop offset="0%" stop-color="#d2b4ff"/>
      <stop offset="40%" stop-color="#8b5dff" stop-opacity="0.95"/>
      <stop offset="100%" stop-color="#000000" stop-opacity="0"/>
    </radialGradient>

    <filter id="cpInnerGlow" x="-50%" y="-50%" width="200%" height="200%">
      <feGaussianBlur stdDeviation="1.2" result="blur"/>
      <feColorMatrix in="blur" type="matrix"
        values="0 0 0 0 0.92
                0 0 0 0 0.86
                0 0 0 0 1
                0 0 0 0.9 0" result="glow"/>
      <feBlend in="SourceGraphic" in2="glow" mode="screen"/>
    </filter>
  </defs>

  <circle cx="36" cy="36" r="32" fill="url(#stoneBase)"/>
  <circle cx="36" cy="36" r="30" fill="url(#crystalVeins)" style="mix-blend-mode:screen;"/>
  <circle cx="36" cy="36" r="32" fill="url(#rimLight)" style="mix-blend-mode:screen;"/>
  <circle cx="36" cy="36" r="22" fill="url(#runeGlow)" opacity="0.9"/>

  <!-- Engraved intertwined loop (Copilot-like) -->
  <g transform="translate(36 36)">
    <path
      d="M -7 0
         C -7 -5, -3 -8.5, 0 -8.5
           3 -8.5, 7 -5, 7 0
           7 5, 3 8.5, 0 8.5
           -3 8.5, -7 5, -7 0 Z
         M -3 0
         C -3 2.2, -1.5 3.8, 0 3.8
           1.5 3.8, 3 2.2, 3 0
           3 -2.2, 1.5 -3.8, 0 -3.8
           -1.5 -3.8, -3 -2.2, -3 0 Z"
      fill="none"
      stroke="#f3ecff"
      stroke-width="2.2"
      stroke-linejoin="round"
      filter="url(#cpInnerGlow)"
    />
  </g>
</svg>

