<svg width="72" height="72" viewBox="0 0 72 72" xmlns="http://www.w3.org/2000/svg">
  <defs>
    <radialGradient id="stoneBase" cx="50%" cy="35%" r="60%">
      <stop offset="0%" stop-color="#f5f7ff"/>
      <stop offset="45%" stop-color="#c7cfdd"/>
      <stop offset="100%" stop-color="#8b93a3"/>
    </radialGradient>

    <radialGradient id="crystalVeins" cx="20%" cy="80%" r="70%">
      <stop offset="0%" stop-color="#7be9ff" stop-opacity="0.9"/>
      <stop offset="40%" stop-color="#7b9dff" stop-opacity="0.4"/>
      <stop offset="100%" stop-color="#2b3250" stop-opacity="0"/>
    </radialGradient>

    <radialGradient id="rimLight" cx="50%" cy="0%" r="70%">
      <stop offset="0%" stop-color="#ffffff" stop-opacity="0.9"/>
      <stop offset="40%" stop-color="#ffffff" stop-opacity="0"/>
      <stop offset="100%" stop-color="#000000" stop-opacity="0"/>
    </radialGradient>

    <!-- Dual sun/moon rune glow -->
    <radialGradient id="runeGlow" cx="50%" cy="50%" r="55%">
      <stop offset="0%" stop-color="#ffe9a6"/>
      <stop offset="40%" stop-color="#9f8cff" stop-opacity="0.95"/>
      <stop offset="100%" stop-color="#000000" stop-opacity="0"/>
    </radialGradient>

    <filter id="sunMoonInnerGlow" x="-50%" y="-50%" width="200%" height="200%">
      <feGaussianBlur stdDeviation="1.2" result="blur"/>
      <feColorMatrix in="blur" type="matrix"
        values="0 0 0 0 1
                0 0 0 0 0.93
                0 0 0 0 0.75
                0 0 0 0.9 0" result="glow"/>
      <feBlend in="SourceGraphic" in2="glow" mode="screen"/>
    </filter>
  </defs>

  <circle cx="36" cy="36" r="32" fill="url(#stoneBase)"/>
  <circle cx="36" cy="36" r="30" fill="url(#crystalVeins)" style="mix-blend-mode:screen;"/>
  <circle cx="36" cy="36" r="32" fill="url(#rimLight)" style="mix-blend-mode:screen;"/>
  <circle cx="36" cy="36" r="22" fill="url(#runeGlow)" opacity="0.9"/>

  <!-- Sun / Moon hybrid glyph -->
  <g transform="translate(36 36)" filter="url(#sunMoonInnerGlow)">
    <!-- Sun circle (left) -->
    <circle cx="-3" cy="0" r="6.5"
      fill="none" stroke="#fff7d9" stroke-width="2.2"/>

    <!-- Sun rays -->
    <g stroke="#fff7d9" stroke-width="2" stroke-linecap="round">
      <line x1="-3" y1="-11" x2="-3" y2="-8"/>
      <line x1="-3" y1="11"  x2="-3" y2="8"/>
      <line x1="-11" y1="0"  x2="-8" y2="0"/>
      <line x1="5"  y1="0"   x2="2"  y2="0"/>
      <line x1="-9.5" y1="-9.5" x2="-7.2" y2="-7.2"/>
      <line x1="-9.5" y1="9.5"  x2="-7.2" y2="7.2"/>
    </g>

    <!-- Crescent moon (right) -->
    <path
      d="M 4 -7
         A 7 7 0 1 0 4 7
         A 5 5 0 1 1 4 -7 Z"
      fill="none"
      stroke="#f3ecff"
      stroke-width="2.2"
      stroke-linejoin="round"/>
  </g>
</svg>
